<svg
    width="24"
    height="24"
    viewBox="0 0 23 23"
    xmlns="http://www.w3.org/2000/svg"
>
    <path
        d="M22.2786 18.2414H0.720055C0.322092 18.2414 -0.000671387 18.5636 -0.000671387 18.9611V20.1599C-0.000671387 22.6193 5.14823 22.3073 11.4993 22.3073C17.8504 22.3073 22.9993 22.2091 22.9993 20.1599V18.9611C22.9993 18.5636 22.6766 18.2414 22.2786 18.2414Z"
        fill="#C9CCBE"
    />
    <path
        d="M2.08587 15.6177H21.2284C21.9433 15.6177 22.5219 15.0387 22.5219 14.3243V13.189C22.5219 12.4751 21.9433 11.8966 21.2284 11.8966H2.08587C1.37103 11.8966 0.792435 12.4751 0.792435 13.189V14.3243C0.792435 15.0387 1.37107 15.6177 2.08587 15.6177Z"
        fill="#C9CCBE"
    />
    <path
        d="M11.4993 0C5.14827 0 -0.000671387 3.33006 -0.000671387 7.75145V8.68308C-0.000671387 9.08055 0.322092 9.40327 0.720055 9.40327H22.2786C22.6766 9.40327 22.9993 9.08051 22.9993 8.68308V7.75145C22.9993 3.33006 17.8504 0 11.4993 0Z"
        fill="#C9CCBE"
    />
</svg>