<svg
    width="27"
    height="27"
    viewBox="0 0 27 27"
    xmlns="http://www.w3.org/2000/svg"
>
    <path
        filter="url(#strong-inner)"
        d="M10.6468 2.78115C11.5449 0.0172148 15.4551 0.0172195 16.3532 2.78115L17.429 6.0922C17.8306 7.32827 18.9825 8.16515 20.2822 8.16515H23.7636C26.6698 8.16515 27.8781 11.884 25.527 13.5922L22.7104 15.6385C21.659 16.4025 21.219 17.7566 21.6206 18.9926L22.6964 22.3037C23.5945 25.0676 20.431 27.366 18.0799 25.6578L15.2634 23.6115C14.2119 22.8475 12.7881 22.8475 11.7366 23.6115L8.92009 25.6578C6.56895 27.366 3.40551 25.0676 4.30357 22.3037L5.3794 18.9926C5.78102 17.7566 5.34105 16.4025 4.28958 15.6385L1.47303 13.5922C-0.878109 11.884 0.330221 8.16515 3.23639 8.16515H6.71784C8.01752 8.16515 9.16938 7.32827 9.571 6.0922L10.6468 2.78115Z"
        fill="#C9CCBE"
    />
    <defs>
        <filter id="strong-inner" y="-0.2">
            <feFlood flood-color="#00000040" />
            <feComposite
                operator="out"
                in2="SourceGraphic"
            />
            operator="dilate" radius="1" />
            <feGaussianBlur stdDeviation="4" />
            <feComposite
                operator="atop"
                in2="SourceGraphic"
            />
        </filter>
    </defs>
</svg>